# xmcd
#
# Track frame offsets:
#	150
#	22758
#	40632
#	56472
#	77307
#	93168
#	115368
#	132040
#	142035
#	155665
#	165232
#	177758
#	190506
#	201306
#	210029
#	223457
#
# Disc length: 3120
#
# Revision: 2
# Processed by: cddbd v1.5.1PL0 Copyright (c) Steve Scherf et al.
# Submitted via: EasyCDDAExtractor 7.5.2.1
# Normalized: r1:DSETVAR1
#
DISCID=c60c2e10
DTITLE=Various Artist - Dr Boogie - Shake it But Don't Break It
DYEAR=1900
DGENRE=Blues
TTITLE0=Canned Heat - JJ Jump
TTITLE1=Rick Russel - The Big Boy
TTITLE2=Terry Robb - The Girl I love Has Long Curly Hair
TTITLE3=Stan West - Big Bone
TTITLE4=Big Bill Hickey - Put The Kettle On
TTITLE5=Harvey Mandel - Norton Groove Mama
TTITLE6=El Fish - Little Law Man
TTITLE7=Schoolboy Cleve - She's Gone
TTITLE8=Little Willy Littlefield - San Jose Express
TTITLE9=Jesse Stone and His Band - Runaway
TTITLE10=Crowbar - The House Of Blue Lights
TTITLE11=Bill Clarke and Hollywood Fats - Come On Baby
TTITLE12=T.K.Hulin - Little Bitty Boy
TTITLE13=Clifton Chenier - Clifton's Squeezebox Boogie
TTITLE14=T.Bones - Rooster Man
TTITLE15=T.Blade and The Esquires - Supersonics
EXTD=
EXTT0=
EXTT1=
EXTT2=
EXTT3=
EXTT4=
EXTT5=
EXTT6=
EXTT7=
EXTT8=
EXTT9=
EXTT10=
EXTT11=
EXTT12=
EXTT13=
EXTT14=
EXTT15=
PLAYORDER=
